#!OML:ASF F:\VICON\USERDATA\INSTALL\rory3\rory3.ASF
:FULLY-SPECIFIED
:DEGREES
742
root 1.03575 12.2076 -3.56816 386.008 -40.0772 357.624
lowerback 38.9577 -0.00500798 7.18848
upperback 5.6002 3.09596 3.74421
thorax -12.6369 0.957217 -0.986236
lowerneck -27.5608 5.41514 -5.13855
upperneck 14.7598 10.3387 -4.7957
head 9.13013 3.9359 0.720278
rclavicle 1.59028e-014 5.32743e-014
rhumerus -34.4453 17.8041 -78.3035
rradius 118.183
rwrist 49.4343
rhand -29.598 5.43531
rfingers 7.12502
rthumb -2.92921 -24.5243
lclavicle 1.59028e-014 5.32743e-014
lhumerus -18.6199 -20.5706 87.1971
lradius 100.207
lwrist -21.2849
lhand -25.8427 13.6589
lfingers 7.12502
lthumb 0.697706 43.6375
rfemur -93.2744 -19.821 18.2104
rtibia 98.1386
rfoot -21.5328 4.70866
rtoes -18.0963
lfemur -99.7542 11.4469 -24.622
ltibia 97.1866
lfoot -17.914 -6.75084
ltoes -10.145
743
root 1.01264 12.3085 -3.52168 386.085 -39.7982 357.759
lowerback 38.5425 -0.0501827 7.18944
upperback 5.48724 3.01193 3.65334
thorax -12.6203 0.9266 -1.05015
lowerneck -27.5158 5.43834 -5.04277
upperneck 14.6209 10.3298 -4.84792
head 9.08182 3.93993 0.682772
rclavicle 4.77083e-014 -9.22361e-014
rhumerus -34.2566 17.6357 -78.4578
rradius 116.966
rwrist 49.6788
rhand -29.4172 5.3708
rfingers 7.12502
rthumb -2.75463 -24.5912
lclavicle 4.77083e-014 -9.22361e-014
lhumerus -18.3902 -20.7492 87.3802
lradius 99.0464
lwrist -21.8018
lhand -25.5952 13.6133
lfingers 7.12502
lthumb 0.936727 43.591
rfemur -92.4818 -19.9489 18.0286
rtibia 97.4904
rfoot -21.7376 4.49169
rtoes -18.1362
lfemur -98.9883 10.9444 -24.4141
ltibia 96.4511
lfoot -17.8873 -6.56077
ltoes -9.6993
744
root 0.984832 12.4035 -3.48075 386.2 -39.6086 357.755
lowerback 38.2812 0.0183094 7.05345
upperback 5.35976 3.03651 3.62618
thorax -12.6823 0.944167 -1.02163
lowerneck -27.443 5.46625 -4.92913
upperneck 14.5229 10.3339 -4.95319
head 9.04817 3.94266 0.626889
rclavicle -1.43125e-014 4.85035e-014
rhumerus -34.0529 17.4467 -78.4928
rradius 115.727
rwrist 49.7591
rhand -29.0858 5.62549
rfingers 7.12502
rthumb -2.43454 -24.3404
lclavicle -1.43125e-014 4.85035e-014
lhumerus -18.103 -20.9422 87.5669
lradius 97.7859
lwrist -22.4264
lhand -25.6596 13.7058
lfingers 7.12502
lthumb 0.87456 43.6838
rfemur -91.6936 -19.8553 17.8686
rtibia 96.8318
rfoot -21.9175 4.20034
rtoes -18.2925
lfemur -98.2858 10.7601 -24.2786
ltibia 95.7538
lfoot -17.9163 -6.57597
ltoes -9.51812
745
root 0.954069 12.4886 -3.43593 386.448 -39.3725 357.617
lowerback 37.8151 0.00193317 7.09357
upperback 5.31766 2.98931 3.54274
thorax -12.558 0.931126 -1.11147
lowerneck -27.532 5.53998 -4.7667
upperneck 14.468 10.3885 -5.01566
head 9.05511 3.97084 0.590843
rclavicle -6.36111e-015 4.21423e-014
rhumerus -33.591 17.2184 -78.6366
rradius 114.312
rwrist 49.826
rhand -28.8498 5.94465
rfingers 7.12502
rthumb -2.20669 -24.0237
lclavicle -6.36111e-015 4.21423e-014
lhumerus -17.7249 -21.112 87.5938
lradius 96.5365
lwrist -22.7305
lhand -25.9997 13.8626
lfingers 7.12502
lthumb 0.546049 43.8416
rfemur -91.0014 -19.7564 17.8658
rtibia 96.1989
rfoot -22.0839 4.02204
rtoes -18.1506
lfemur -97.763 10.7099 -24.1653
ltibia 95.1307
lfoot -17.9613 -6.74229
ltoes -9.34111
746
root 0.925463 12.5715 -3.38807 386.624 -39.0328 357.577
lowerback 37.2253 -0.0991519 7.24766
upperback 5.31144 2.86521 3.44919
thorax -12.3409 0.884387 -1.23767
lowerneck -27.6845 5.5938 -4.64961
upperneck 14.4074 10.4332 -5.06304
head 9.0672 3.99227 0.566669
rclavicle 2.22639e-014 -4.37326e-014
rhumerus -32.9777 16.9757 -78.8169
rradius 112.722
rwrist 49.8293
rhand -28.7141 5.89209
rfingers 7.12502
rthumb -2.07558 -24.0776
lclavicle 2.22639e-014 -4.37326e-014
lhumerus -17.2428 -21.3641 87.5604
lradius 95.1817
lwrist -22.6957
lhand -26.307 13.9212
lfingers 7.12502
lthumb 0.249281 43.9008
rfemur -90.3086 -19.8656 17.8823
rtibia 95.5938
rfoot -22.2427 3.95495
rtoes -17.89
lfemur -97.2172 10.524 -24.0638
ltibia 94.502
lfoot -17.9233 -6.91107
ltoes -8.96224
747
root 0.897702 12.6537 -3.34525 386.772 -38.6422 357.58
lowerback 36.8487 -0.0703573 7.13727
upperback 5.15312 2.87189 3.60261
thorax -12.4016 0.894654 -1.01844
lowerneck -27.7337 5.57101 -4.84787
upperneck 14.3764 10.4806 -5.08071
head 9.0563 4.0009 0.598004
rclavicle -4.77083e-015 -7.63333e-014
rhumerus -32.6421 16.8168 -78.7217
rradius 111.196
rwrist 49.7966
rhand -28.5529 5.82265
rfingers 7.12502
rthumb -1.91992 -24.1485
lclavicle -4.77083e-015 -7.63333e-014
lhumerus -16.9352 -21.5556 87.9574
lradius 93.7714
lwrist -22.8131
lhand -26.3264 14.1031
lfingers 7.12502
lthumb 0.230488 44.0827
rfemur -89.6313 -20.0096 17.9106
rtibia 94.9962
rfoot -22.4381 3.69322
rtoes -18.0013
lfemur -96.679 10.2917 -23.9647
ltibia 93.8753
lfoot -17.9052 -7.03905
ltoes -8.91177
748
root 0.867743 12.7328 -3.31807 386.939 -38.2403 357.693
lowerback 36.4787 0.0168343 6.71118
upperback 4.9439 2.84969 3.82253
thorax -12.549 0.903677 -0.552535
lowerneck -27.7293 5.59904 -5.07327
upperneck 14.3699 10.6065 -5.10339
head 9.04431 4.04412 0.642714
rclavicle -1.43125e-014 3.02153e-014
rhumerus -32.3721 16.7974 -78.6221
rradius 109.71
rwrist 49.6176
rhand -28.4232 5.93157
rfingers 7.12502
rthumb -1.79465 -24.0406
lclavicle -1.43125e-014 3.02153e-014
lhumerus -16.6818 -21.5315 88.4311
lradius 92.3245
lwrist -22.9578
lhand -26.3761 14.0346
lfingers 7.12502
lthumb 0.182508 44.0142
rfemur -89.1208 -20.0514 17.882
rtibia 94.4503
rfoot -22.6821 3.2124
rtoes -18.5161
lfemur -96.2955 10.1226 -23.996
ltibia 93.2478
lfoot -17.8753 -7.3033
ltoes -9.14513
749
root 0.839201 12.823 -3.26997 386.88 -38.029 357.63
lowerback 36.2349 -0.0567129 6.68793
upperback 4.91696 2.71868 3.704
thorax -12.488 0.851179 -0.614181
lowerneck -27.797 5.69058 -4.94626
upperneck 14.2581 10.6799 -5.11566
head 9.02238 4.08918 0.63006
rclavicle 8.74653e-015 -2.14687e-014
rhumerus -31.8418 16.621 -78.8798
rradius 108.052
rwrist 49.4169
rhand -28.4427 5.95297
rfingers 7.12502
rthumb -1.81347 -24.0191
lclavicle 8.74653e-015 -2.14687e-014
lhumerus -16.2249 -21.6031 88.3252
lradius 90.8403
lwrist -22.9601
lhand -26.4894 13.8901
lfingers 7.12502
lthumb 0.0730557 43.8698
rfemur -88.0969 -19.9991 17.7512
rtibia 93.7915
rfoot -22.9138 2.999
rtoes -18.6477
lfemur -95.4467 10.0796 -23.9344
ltibia 92.6334
lfoot -18.0056 -7.39151
ltoes -9.36111
750
root 0.810068 12.9079 -3.22057 386.917 -37.7811 357.511
lowerback 35.9078 -0.102501 6.76658
upperback 4.86247 2.65345 3.56119
thorax -12.4164 0.824161 -0.782229
lowerneck -27.7788 5.73598 -4.82468
upperneck 14.0636 10.6617 -5.04777
head 8.95125 4.10801 0.62724
rclavicle -8.66701e-014 -1.74931e-014
rhumerus -31.3315 16.27 -79.1486
rradius 106.292
rwrist 49.361
rhand -28.467 5.85051
rfingers 7.12502
rthumb -1.83693 -24.1213
lclavicle -8.66701e-014 -1.74931e-014
lhumerus -15.7527 -21.8704 88.1316
lradius 89.3906
lwrist -22.8527
lhand -26.2181 14.0753
lfingers 7.12502
lthumb 0.335082 44.0548
rfemur -87.1558 -19.9705 17.6953
rtibia 93.1112
rfoot -23.0974 2.82856
rtoes -18.5689
lfemur -94.7026 10.0444 -23.8374
ltibia 92.0174
lfoot -18.1764 -7.50262
ltoes -10.2477
751
root 0.78345 12.9962 -3.16387 386.981 -37.5083 357.42
lowerback 35.4201 -0.0914282 6.81576
upperback 4.7857 2.65528 3.54895
thorax -12.3144 0.830974 -0.820693
lowerneck -27.8073 5.72536 -4.93693
upperneck 14.0139 10.6661 -4.95414
head 8.92591 4.11738 0.675617
rclavicle 3.10104e-014 -1.74931e-014
rhumerus -30.9588 15.9192 -79.211
rradius 104.539
rwrist 49.3659
rhand -28.4087 5.69946
rfingers 7.12502
rthumb -1.78062 -24.2729
lclavicle 3.10104e-014 -1.74931e-014
lhumerus -15.3693 -22.1505 88.2453
lradius 87.8919
lwrist -22.6433
lhand -25.7382 14.1463
lfingers 7.12502
lthumb 0.798613 44.1245
rfemur -86.2561 -20.0341 17.6797
rtibia 92.3356
rfoot -23.2174 2.55083
rtoes -18.9467
lfemur -93.9566 9.87911 -23.7264
ltibia 91.3891
lfoot -18.3807 -7.46419
ltoes -11.0711
752
root 0.756756 13.0943 -3.10386 386.975 -37.3974 357.261
lowerback 34.9444 0.00662409 6.79518
upperback 4.81937 2.72936 3.5277
thorax -12.2022 0.87181 -0.898613
lowerneck -27.9427 5.72445 -4.90105
upperneck 14.0258 10.6786 -5.03186
head 8.95937 4.11097 0.649751
rclavicle 1.03368e-014 2.78299e-014
rhumerus -30.603 15.5217 -79.2332
rradius 102.759
rwrist 49.3791
rhand -28.4944 5.46515
rfingers 7.12502
rthumb -1.86342 -24.5065
lclavicle 1.03368e-014 2.78299e-014
lhumerus -14.8769 -22.5256 88.3551
lradius 86.2145
lwrist -22.4952
lhand -25.6192 14.0619
lfingers 7.12502
lthumb 0.913514 44.0397
rfemur -85.1704 -19.9372 17.6077
rtibia 91.519
rfoot -23.3662 2.34599
rtoes -19.2961
lfemur -93.0297 9.88767 -23.6305
ltibia 90.7446
lfoot -18.522 -7.44857
ltoes -11.0844
753
root 0.727816 13.2024 -3.03999 386.882 -37.4928 356.892
lowerback 34.7149 0.131814 6.83363
upperback 4.87689 2.85587 3.39852
thorax -12.0311 0.9329 -1.10609
lowerneck -28.1508 5.76925 -4.81764
upperneck 14.0557 10.7201 -5.00871
head 9.00542 4.13085 0.657472
rclavicle -2.14687e-014 7.87187e-014
rhumerus -30.1568 15.1537 -79.4145
rradius 100.939
rwrist 49.3892
rhand -28.7291 5.1969
rfingers 7.12502
rthumb -2.09005 -24.7726
lclavicle -2.14687e-014 7.87187e-014
lhumerus -14.2282 -22.8624 88.2324
lradius 84.4736
lwrist -22.4861
lhand -25.5896 13.5425
lfingers 7.12502
lthumb 0.942089 43.5202
rfemur -83.7499 -19.5185 17.4968
rtibia 90.6497
rfoot -23.5684 2.1316
rtoes -19.5979
lfemur -91.826 10.2279 -23.4249
ltibia 90.0962
lfoot -18.6662 -7.62959
ltoes -10.6034
754
root 0.696938 13.2719 -3.01838 387.176 -36.9403 356.757
lowerback 34.246 0.197236 6.63199
upperback 4.67278 2.88612 3.62665
thorax -12.1076 0.958457 -0.768134
lowerneck -28.1251 5.75115 -5.11855
upperneck 13.9666 10.779 -4.91824
head 8.94842 4.15842 0.738656
rclavicle 3.10104e-014 6.36111e-015
rhumerus -29.7909 15.0058 -79.3234
rradius 99.1222
rwrist 49.2881
rhand -28.9918 4.94321
rfingers 7.12502
rthumb -2.34375 -25.0237
lclavicle 3.10104e-014 6.36111e-015
lhumerus -13.684 -23.0607 88.4297
lradius 82.6381
lwrist -22.8892
lhand -25.6087 13.2124
lfingers 7.12502
lthumb 0.923716 43.1901
rfemur -83.2269 -19.551 17.6899
rtibia 90.0261
rfoot -23.6464 1.68685
rtoes -19.6013
lfemur -91.5708 10.0724 -23.2485
ltibia 89.4893
lfoot -18.5487 -7.96977
ltoes -11.0082
755
root 0.665293 13.3381 -2.99106 387.865 -36.321 356.322
lowerback 33.4873 0.208125 6.80817
upperback 4.45054 2.94573 3.75825
thorax -12.0539 0.987178 -0.740616
lowerneck -28.0921 5.72442 -5.16012
upperneck 13.7489 10.7422 -4.9503
head 8.86682 4.14814 0.72247
rclavicle -3.4191e-014 5.88403e-014
rhumerus -29.4315 14.6967 -79.4046
rradius 97.2521
rwrist 49.2759
rhand -29.2898 4.5736
rfingers 7.12502
rthumb -2.63161 -25.3899
lclavicle -3.4191e-014 5.88403e-014
lhumerus -13.0733 -23.643 88.3894
lradius 80.6916
lwrist -23.5544
lhand -26.1256 13.7471
lfingers 7.12502
lthumb 0.424476 43.7264
rfemur -82.9289 -19.4911 18.2489
rtibia 89.4113
rfoot -23.7817 1.18471
rtoes -19.5255
lfemur -91.622 10.0842 -22.9272
ltibia 88.9107
lfoot -18.3989 -8.45446
ltoes -11.1658
